<?xml version="1.0" encoding="UTF-8"?>
<svg id="Capa_1" xmlns="http://www.w3.org/2000/svg" version="1.1" viewBox="0 0 688.63 300.7">
  <!-- Generator: Adobe Illustrator 30.2.1, SVG Export Plug-In . SVG Version: 2.1.1 Build 1)  -->
  <defs>
    <style>
      .st0, .st1 {
        fill: #fff;
        stroke: #fff;
        stroke-miterlimit: 10;
      }

      .st1 {
        font-family: Montserrat-Thin, Montserrat;
        font-size: 87px;
        font-weight: 200;
      }
    </style>
  </defs>
  <path class="st0" d="M339.58,169.44l-.35-19.08.34-19.05c0-.51-1.66-.97-2.37-.96l-16.19.25H60.49s-16.52.27-16.52.27c-.92.02-3.17-.08-3.58-.63-.41-.56-.71-2.73-.68-3.55l.32-9.4v-63.88s-.31-10.45-.31-10.45c-.02-.75.45-2.33.95-2.73.33-.27,1.64-.43,2.12-.42l9.71.29,276.55.02c8.25,0,10.58,1.7,10.51-1.47l-.35-17.31.32-19.34c.05-3.12-2.32-1.41-10.49-1.41l-283.57-.03-26.28-.23L1.94.06C-1.26,0,.47,2.03.47,10.53v271.57s-.28,16.41-.28,16.41c-.01.58.57,2.17,1.09,2.16l18.97-.36,19,.36c.49,0,1.09-1.59,1.08-2.15l-.28-16.27-.02-100.85-.33-9.26c-.02-.61,1.73-2.39,2.38-2.37l9.41.33h269.54s16.41.29,16.41.29c.55,0,2.16-.61,2.15-.95Z"/>
  <path class="st0" d="M688.25,284.1V17.59s.35-17.59.35-17.59l-17.32.34-28.26.22-283.57.02-10.21-.32.2,22.08.19,23.07v79.86s-.23,25.06-.23,25.06l-.17,20.09,10.21-.31,277.56-.02c4.94,0,12.22-1.84,12.06,2.6l-.35,9.74-.02,100.83-.29,15.93c0,.5,1.16,1.39,1.52,1.39l18.27-.27,18.7.39c.78.02,1.76-.95,1.74-1.71l-.37-14.89ZM637.05,130.59h-226.58c-4.8,0-12.22,1.86-12.03-2.6l.36-8.67V51.37s-.37-8.62-.37-8.62c-.19-4.53,7.08-2.65,12.03-2.65h217.57s16.68-.19,16.68-.19c1.07-.01,2.2.08,3.78.17.2,1.47.44,2.95.43,3.77l-.22,9.56v63.85s.38,10.34.38,10.34c.19,4.9-6.99,2.98-12.05,2.98Z"/>
  <text class="st1" transform="translate(172.71 299.33)"><tspan x="0" y="0">Arch Viz</tspan></text>
</svg>