<?xml version="1.0" encoding="UTF-8"?>
<svg id="Capa_1" xmlns="http://www.w3.org/2000/svg" version="1.1" viewBox="0 0 688.63 300.7">
  <!-- Generator: Adobe Illustrator 30.2.1, SVG Export Plug-In . SVG Version: 2.1.1 Build 1)  -->
  <defs>
    <style>
      .st0 {
        fill: #020202;
        stroke: #020202;
        stroke-miterlimit: 10;
      }
    </style>
  </defs>
  <path class="st0" d="M339.58,169.44l-.35-19.08.34-19.05c0-.51-1.66-.97-2.37-.96l-16.19.25H60.49s-16.52.27-16.52.27c-.92.02-3.17-.08-3.58-.63-.41-.56-.71-2.73-.68-3.55l.32-9.4v-63.88s-.31-10.45-.31-10.45c-.02-.75.45-2.33.95-2.73.33-.27,1.64-.43,2.12-.42l9.71.29,276.55.02c8.25,0,10.58,1.7,10.51-1.47l-.35-17.31.32-19.34c.05-3.12-2.32-1.41-10.49-1.41l-283.57-.03-26.28-.23L1.94.06C-1.26,0,.47,2.03.47,10.53v271.57s-.28,16.41-.28,16.41c-.01.58.57,2.17,1.09,2.16l18.97-.36,19,.36c.49,0,1.09-1.59,1.08-2.15l-.28-16.27-.02-100.85-.33-9.26c-.02-.61,1.73-2.39,2.38-2.37l9.41.33h269.54s16.41.29,16.41.29c.55,0,2.16-.61,2.15-.95Z"/>
  <path class="st0" d="M688.25,284.1V17.59s.35-17.59.35-17.59l-17.32.34-28.26.22-283.57.02-10.21-.32.2,22.08.19,23.07v79.86s-.23,25.06-.23,25.06l-.17,20.09,10.21-.31,277.56-.02c4.94,0,12.22-1.84,12.06,2.6l-.35,9.74-.02,100.83-.29,15.93c0,.5,1.16,1.39,1.52,1.39l18.27-.27,18.7.39c.78.02,1.76-.95,1.74-1.71l-.37-14.89ZM637.05,130.59h-226.58c-4.8,0-12.22,1.86-12.03-2.6l.36-8.67V51.37s-.37-8.62-.37-8.62c-.19-4.53,7.08-2.65,12.03-2.65h217.57s16.68-.19,16.68-.19c1.07-.01,2.2.08,3.78.17.2,1.47.44,2.95.43,3.77l-.22,9.56v63.85s.38,10.34.38,10.34c.19,4.9-6.99,2.98-12.05,2.98Z"/>
  <g>
    <path class="st0" d="M223.43,280.97h-37.24l-8.53,18.36h-2l28.28-60.9h1.74l28.28,60.9h-2l-8.53-18.36ZM222.65,279.32l-17.84-38.54-17.84,38.54h35.67Z"/>
    <path class="st0" d="M264.14,254.08v1.74h-.52c-10.79,0-17.14,7.4-17.14,19.32v24.19h-1.74v-44.98h1.74v11.66c2.52-7.57,8.61-11.92,17.66-11.92Z"/>
    <path class="st0" d="M271.45,276.79c0-13.4,9.31-22.71,22.1-22.71,6.44,0,12.35,2.44,16.18,7.31l-1.22,1.31c-3.48-4.7-8.96-6.96-14.96-6.96-11.75,0-20.36,8.61-20.36,21.06s8.61,21.14,20.36,21.14c6,0,11.48-2.26,14.96-6.96l1.22,1.3c-3.83,4.87-9.74,7.31-16.18,7.31-12.79,0-22.1-9.4-22.1-22.79Z"/>
    <path class="st0" d="M361.93,272.79v26.54h-1.74v-26.54c0-11.14-6-17.05-16.18-17.05-11.83,0-18.97,7.74-18.97,19.14v24.45h-1.74v-64.56h1.74v31.58c2.7-7.48,9.31-12.27,18.88-12.27,11.05,0,18.01,6.53,18.01,18.71Z"/>
    <path class="st0" d="M450.59,238.42l-27.41,60.9h-1.74l-27.41-60.9h2l26.28,58.55,26.28-58.55h2Z"/>
    <path class="st0" d="M457.89,239.64c0-1.22,1.04-2.26,2.26-2.26s2.26,1.04,2.26,2.26-1.04,2.26-2.26,2.26-2.26-1.04-2.26-2.26ZM459.29,254.35h1.74v44.98h-1.74v-44.98Z"/>
    <path class="st0" d="M509.57,297.67v1.65h-34.54v-1.3l31.67-42.02h-31.23v-1.65h33.67v1.3l-31.67,42.02h32.11Z"/>
  </g>
</svg>