<?xml version="1.0" encoding="UTF-8"?>
<svg id="Capa_1" xmlns="http://www.w3.org/2000/svg" version="1.1" viewBox="0 0 688.63 300.7">
  <!-- Generator: Adobe Illustrator 30.2.1, SVG Export Plug-In . SVG Version: 2.1.1 Build 1)  -->
  <defs>
    <style>
      .st0 {
        fill: #020202;
      }
    </style>
  </defs>
  <path class="st0" d="M339.58,169.44l-.35-19.08.34-19.05c0-.51-1.66-.97-2.37-.96l-16.19.25H60.49s-16.52.27-16.52.27c-.92.02-3.17-.08-3.58-.63-.41-.56-.71-2.73-.68-3.55l.32-9.4v-63.88s-.31-10.45-.31-10.45c-.02-.75.45-2.33.95-2.73.33-.27,1.64-.43,2.12-.42l9.71.29,276.55.02c8.25,0,10.58,1.7,10.51-1.47l-.35-17.31.32-19.34c.05-3.12-2.32-1.41-10.49-1.41l-283.57-.03-26.28-.23L1.94.06C-1.26,0,.47,2.03.47,10.53v271.57s-.28,16.41-.28,16.41c-.01.58.57,2.17,1.09,2.16l18.97-.36,19,.36c.49,0,1.09-1.59,1.08-2.15l-.28-16.27-.02-100.85-.33-9.26c-.02-.61,1.73-2.39,2.38-2.37l9.41.33h269.54s16.41.29,16.41.29c.55,0,2.16-.61,2.15-.95Z"/>
  <path class="st0" d="M305.6,292.64c-5.37,6.54-14.59,8.51-22.59,6.32-6.16-1.69-10.64-6.2-12.47-12.28-3.33-11.03-2.38-27.04,9.61-32.65,8.89-4.16,21.79-2.58,26.05,7.39l1.45,3.96,1.26-2.15c-3.57-12.37-16.9-14.44-27.83-11.79-13.53,3.29-18.28,27.18-8.94,42.26,6.17,9.96,28.01,9.71,33.9.77l4.53-6.88-2.52-.79-2.44,5.84Z"/>
  <path class="st0" d="M215.71,263.64l-4.11-9.98-6.86-16.72c-.19-.46-1.46-1.64-1.86-1.35-.27.19-1.23,1.01-1.36,1.32l-3,7.33-6.13,14.99-4.09,9.95-4.36,10.59-4.67,11.33-3.57,8.65c.18.11,1.75.17,1.89-.14l3.42-8.06c2.55-6.01,4.5-14.28,8.05-14.28h6.54s15.88.01,15.88.01l5.9.04c3.73.02,4.91,7.22,6.14,10.14l4.85,11.52c.18.42,1.9.91,2.06.79l-8.34-20.55-6.38-15.56ZM211.81,275.62c-5.64-.14-10.45-.26-15.61.03l-6.18.34c-.51.03-1.97-1.65-1.76-2.14l2.72-6.38,3.88-9.25,4.71-11.38,2.98-7.18c.2-.49,1.71,1.16,1.94,1.73l3.48,8.46,4.98,12.07,4.09,9.93,1.58,3.94-6.82-.16Z"/>
  <path class="st0" d="M446.33,236.58l-3.97,9.53-8.81,22.3-7.32,18.73-3.7,9.28c-.14.35-1.62.12-1.74-.19l-7.97-20.46-4.5-11.76-7.84-19.33-3.33-8.2c-1.19-2.94-2.26-.86,1.5,8.54l8.04,20.12,4.78,12.21,7.21,17.96c.45,1.13,1.54,3.44,2.05,4.49,1.36,2.83,4.27-4.28,4.53-5l4.39-11.76,4.63-11.4,3.96-10.04,7.34-18.76c1.47-3.77,4.69-15.77.73-6.27Z"/>
  <path class="st0" d="M246.53,255.32l-3.08,4.18c-.2.27-1.47.18-1.49-.09l-.49-7.79c-.15-.27-1.38.87-1.38,1.76l.08,46.21c0,.59,1.66-.27,1.66-.74l-.13-22.54c-.05-8.3.64-14.69,6.88-20.67,4.65-4.46,9.58-4.31,14.95-1.68.4.2,1.71-1.31,1.3-1.53-5.69-3.05-14.56-2.2-18.31,2.9Z"/>
  <path class="st0" d="M349.66,251.14c-8.45-1.73-16.34-.16-22.16,6.25l-2.62,2.88c-.29.32-1.33-1.57-1.33-2.14l.03-13.84.37-14.62c.01-.57-.87-1.88-1.18-1.63-2.47,1.9-.78,2.39-.78,11.21v35.23s-.02,23.99-.02,23.99c0,.54.67,1.58.78,1.84.11.25.88-1.24.88-1.58l-.06-24.28c-.02-8.21,1.09-13.46,7.42-18.36,6.65-5.15,14.94-6,22.42-1.8,6.25,3.51,7.12,9.37,7.04,15.96l-.13,11.21-.12,17.94c0,.72,2.11.65,2.1-.12l-.03-24.83c-.01-9.45-.4-20.81-12.6-23.3Z"/>
  <path class="st0" d="M688.25,284.1V17.59s.35-17.59.35-17.59l-17.32.34-28.26.22-283.57.02-10.21-.32.2,22.08.19,23.07v79.86s-.23,25.06-.23,25.06l-.17,20.09,10.21-.31,277.56-.02c4.94,0,12.22-1.84,12.06,2.6l-.35,9.74-.02,100.83-.29,15.93c0,.5,1.16,1.39,1.52,1.39l18.27-.27,18.7.39c.78.02,1.76-.95,1.74-1.71l-.37-14.89ZM637.05,130.59h-226.58c-4.8,0-12.22,1.86-12.03-2.6l.36-8.67V51.37s-.37-8.62-.37-8.62c-.19-4.53,7.08-2.65,12.03-2.65h217.57s16.68-.19,16.68-.19c1.07-.01,2.2.08,3.78.17.2,1.47.44,2.95.43,3.77l-.22,9.56v63.85s.38,10.34.38,10.34c.19,4.9-6.99,2.98-12.05,2.98Z"/>
  <path class="st0" d="M458.25,252.32v47.05c0,.72,2.02.72,2.02,0v-47.05c0-.72-2.02-.72-2.02,0Z"/>
  <path class="st0" d="M510.98,298.24l-14.69.11-13.14.37-6.15.21c-.69.02-.61-2.42-.14-3.02l6.04-7.71,5.77-7.4,7.87-10.12,6.64-8.58,6.9-8.95c.42-.54-1.06-1.89-1.66-1.89l-36.23.09c-.59,0-.65,2.05-.04,2.05l16.01-.08,11.22-.33,6.16-.21c.69-.02.81,2.53.34,3.11l-5.81,7.14-18.02,23.03-6.32,7.95c-1.04,1.31-2.87,4-3.74,5.31-.27.4,1.6,1.11,2.44,1.11l37.19-.09c.52,0,.05-2.08-.63-2.08Z"/>
  <polygon class="st0" points="457.38 237.71 457.19 242.24 461.01 241.38 460.86 237.79 457.38 237.71"/>
</svg>